<?xml version="1.0" standalone="no"?>
<!DOCTYPE svg PUBLIC "-//W3C//DTD SVG 20010904//EN"
 "http://www.w3.org/TR/2001/REC-SVG-20010904/DTD/svg10.dtd">
<svg version="1.0" xmlns="http://www.w3.org/2000/svg"
 width="512.000000pt" height="512.000000pt" viewBox="0 0 512.000000 512.000000"
 preserveAspectRatio="xMidYMid meet">

<g transform="translate(0.000000,512.000000) scale(0.100000,-0.100000)"
fill="#000000" stroke="none">
<path d="M798 4974 c-125 -30 -259 -138 -319 -256 -58 -114 -59 -129 -59 -860
l0 -668 -155 0 c-183 0 -217 -9 -241 -65 -13 -31 -14 -107 -12 -511 l3 -476
33 -29 32 -29 170 0 169 0 3 -645 3 -645 26 -26 c20 -20 39 -27 86 -31 l61 -6
5 -181 c2 -99 10 -198 16 -218 31 -99 133 -193 236 -218 28 -7 89 -11 136 -9
138 6 244 71 302 185 25 49 37 146 37 302 l0 142 1215 0 1215 0 0 -142 c0
-156 12 -253 37 -302 33 -66 83 -115 151 -148 56 -28 80 -34 151 -37 47 -2
108 2 136 9 103 25 205 119 236 218 6 20 14 119 16 218 l5 181 61 6 c47 4 66
11 86 31 l26 26 3 645 3 645 169 0 170 0 32 29 33 29 3 476 c2 404 1 480 -12
511 -24 56 -58 65 -241 65 l-155 0 0 668 c0 534 -3 680 -14 733 -40 185 -190
342 -369 384 -90 21 -3401 21 -3489 -1z m3493 -205 c72 -34 134 -99 159 -166
18 -49 20 -79 20 -338 l0 -285 -1925 0 -1925 0 0 285 c0 259 2 289 20 338 33
89 120 163 217 186 22 5 755 8 1708 8 l1670 -2 56 -26z m177 -1741 l2 -758
-221 0 -222 0 -653 210 c-359 116 -667 210 -684 210 -39 0 -90 -47 -90 -84 0
-41 17 -74 47 -89 15 -8 179 -63 363 -122 184 -59 339 -111 344 -116 6 -5
-209 -9 -503 -9 l-513 0 -650 210 c-357 116 -663 210 -679 210 -42 0 -77 -27
-88 -67 -11 -39 -3 -70 25 -95 11 -9 177 -67 369 -129 193 -62 354 -116 360
-121 5 -4 -230 -8 -523 -8 l-532 0 0 753 c0 415 3 757 7 760 3 4 868 6 1922 5
l1916 -3 3 -757z m-4050 -395 l-3 -358 -102 -3 -103 -3 0 361 0 360 105 0 105
0 -2 -357z m4462 -3 l0 -361 -102 3 -103 3 -3 358 -2 357 105 0 105 0 0 -360z
m-410 -1125 l0 -575 -1925 0 -1925 0 0 575 0 575 1925 0 1925 0 0 -575z
m-3342 -954 l-3 -180 -29 -30 c-38 -39 -85 -54 -153 -49 -56 5 -93 25 -125 69
-15 21 -18 47 -18 189 -1 91 -1 168 0 173 0 4 75 7 166 7 l165 0 -3 -179z
m3163 4 c-1 -146 -4 -173 -19 -194 -32 -44 -69 -64 -125 -69 -68 -5 -115 10
-153 49 l-29 30 -3 180 -3 179 166 -2 167 -3 -1 -170z"/>
<path d="M1345 4656 c-50 -22 -55 -47 -55 -267 0 -220 6 -247 57 -268 21 -8
335 -11 1215 -9 l1188 3 27 28 28 27 0 220 0 220 -28 27 -27 28 -1188 2 c-968
2 -1193 0 -1217 -11z m2263 -188 c7 -7 12 -42 12 -85 0 -67 -2 -73 -22 -78
-13 -3 -493 -4 -1068 -3 l-1045 3 -3 74 c-2 41 -1 80 2 88 7 18 2105 20 2124
1z"/>
<path d="M849 3571 c-37 -38 -39 -88 -5 -128 l24 -28 767 -3 766 -2 30 29 c40
41 40 91 0 132 l-29 29 -762 0 -762 0 -29 -29z"/>
<path d="M2729 3585 c-57 -31 -56 -130 1 -160 40 -21 239 -21 279 0 60 31 60
129 1 160 -40 21 -244 20 -281 0z"/>
<path d="M1144 1800 c-146 -30 -243 -142 -252 -290 -5 -100 21 -172 88 -240
147 -146 394 -111 495 71 27 49 30 62 30 149 0 81 -4 102 -25 144 -61 119
-208 192 -336 166z m114 -204 c35 -19 62 -66 62 -109 0 -53 -50 -106 -105
-113 -76 -9 -144 63 -130 139 15 79 104 122 173 83z"/>
<path d="M3834 1800 c-99 -20 -180 -81 -224 -167 -21 -41 -25 -62 -25 -143 0
-87 3 -100 30 -149 127 -230 473 -208 565 36 28 75 24 186 -9 251 -64 125
-207 198 -337 172z m116 -207 c35 -24 48 -43 55 -80 8 -44 -17 -98 -57 -123
-103 -65 -225 63 -159 164 11 16 30 35 43 42 33 19 89 17 118 -3z"/>
</g>
</svg>
